<?xml version="1.0" standalone="no"?>
<!DOCTYPE svg PUBLIC "-//W3C//DTD SVG 1.1//EN" "http://www.w3.org/Graphics/SVG/1.1/DTD/svg11.dtd" >
<svg xmlns="http://www.w3.org/2000/svg">
<metadata>
This is a custom SVG webfont generated by Font Squirrel.
Copyright   : Copyright c 2009 by APage  RML Types All rights reserved
Designer    : APage  RML Types
Foundry     : APage  RML Types
</metadata>
<defs>
<font id="EniExpBoldRegular" horiz-adv-x="1028" >
<font-face units-per-em="2048" ascent="1608" descent="-440" />
<missing-glyph horiz-adv-x="430" />
<glyph unicode=" "  horiz-adv-x="430" />
<glyph unicode="&#x09;" horiz-adv-x="430" />
<glyph unicode="&#xa0;" horiz-adv-x="430" />
<glyph unicode="!" horiz-adv-x="526" d="M147 94q0 47 34 82t81 35q49 0 83 -35t34 -82t-34 -80.5t-81 -33.5q-49 0 -83 33.5t-34 80.5zM170 350v955l186 51v-1006h-186z" />
<glyph unicode="&#x22;" horiz-adv-x="606" d="M72 1063q57 164 61 293l166 8q0 -145 -66 -324zM297 1038q68 195 72 318l166 8q0 -141 -76 -348z" />
<glyph unicode="#" horiz-adv-x="1343" d="M82 287l49 166h248l18 170h-305l49 165h275l26 246l183 78l-35 -324h184l29 246l182 78l-35 -324h312l-86 -165h-246l-17 -170h336l-82 -166h-270l-31 -287h-178l33 287h-184l-31 -287h-176l32 287h-280zM555 453h182l19 170h-185z" />
<glyph unicode="$" horiz-adv-x="1081" d="M113 997q-2 143 125 251t335 108q180 0 345 -82l-19 -203q-49 33 -150.5 59.5t-175.5 26.5q-88 0 -171 -37t-83 -114q0 -80 121 -158l279 -178q248 -158 250 -344q0 -145 -95.5 -245.5t-269.5 -100.5q-248 0 -418 71l-30 228q201 -100 393 -101q88 0 142 42t54 102 q0 96 -141 186l-299 190q-192 123 -192 299zM455 47l186 51v-387h-186v336zM455 1198v336l186 51v-387h-186z" />
<glyph unicode="%" horiz-adv-x="1556" d="M92 973q0 383 264.5 383t264.5 -381q0 -76 -11.5 -137.5t-39 -116.5t-81 -85t-131.5 -30q-266 2 -266 367zM199 -20l919 1351l230 25l-918 -1376h-231zM262 975q0 -123 23.5 -163t68.5 -40q47 0 68.5 40t21.5 163l2 -2q0 123 -18 170t-76 47q-45 0 -67.5 -48t-22.5 -167z M936 346q0 383 264 383t264 -381q0 -76 -11 -137t-39 -116.5t-81 -85t-131 -29.5q-266 1 -266 366zM1106 348q0 -123 22.5 -163t67.5 -40q49 0 71.5 40t22.5 161q0 123 -18.5 170t-75.5 47q-45 0 -67.5 -48t-22.5 -167z" />
<glyph unicode="&#x26;" horiz-adv-x="1458" d="M133 324q0 111 67.5 216t213.5 183q-217 168 -213 352q0 119 91 200t271 81q162 0 256 -83t94 -206q0 -213 -225 -358l303 -312l301 254v-231l-174 -148l268 -272h-245l-164 160q-203 -180 -424 -180q-168 0 -294 91t-126 253zM332 338q0 -86 59.5 -134t157.5 -48 q63 0 146 35.5t155 101.5l-305 319q-98 -43 -155.5 -124.5t-57.5 -149.5zM389 1061q0 -109 170 -236q172 104 172 228h2q0 63 -50 99t-120 36q-68 0 -121 -32t-53 -95z" />
<glyph unicode="'" horiz-adv-x="346" d="M72 1038q53 164 57 310l145 8h-2q0 -160 -57 -328z" />
<glyph unicode="(" horiz-adv-x="561" d="M113 536.5q0 262.5 100 478.5t250 341l47 -193q-94 -102 -155.5 -283.5t-61.5 -343t61.5 -343t155.5 -283.5l-47 -193q-147 123 -248.5 340t-101.5 479.5z" />
<glyph unicode=")" horiz-adv-x="561" d="M51 -90q92 102 154.5 284.5t62.5 342.5q0 162 -61.5 343t-155.5 281l45 195q150 -123 251.5 -340t101.5 -479.5t-101.5 -478.5t-249.5 -341z" />
<glyph unicode="*" horiz-adv-x="921" d="M31 915l22 144h275l-150 244l144 53l139 -226l149 244l119 -90l-137 -225h299l-23 -144h-276l149 -243l-141 -54l-139 226l-150 -244l-118 90l137 225h-299z" />
<glyph unicode="+" horiz-adv-x="1243" d="M82 444l33 191h409v412l193 32v-442h444l-33 -193h-409v-444h-193v444h-444z" />
<glyph unicode="," horiz-adv-x="315" d="M-61 -401q78 102 128 248.5t50 254.5l168 11q0 -137 -55.5 -292t-118.5 -233z" />
<glyph unicode="-" horiz-adv-x="751" d="M72 449l32 192h576l-33 -192h-575z" />
<glyph unicode="." horiz-adv-x="333" d="M51 94q0 47 35 82t82 35t81 -35t34 -82t-34 -80.5t-81 -33.5t-82 33.5t-35 80.5z" />
<glyph unicode="/" horiz-adv-x="751" d="M72 -20l389 1325l219 51l-401 -1346z" />
<glyph unicode="0" horiz-adv-x="1181" d="M123 651q0 356 107.5 530.5t359.5 174.5q254 0 361.5 -174t107.5 -531q0 -154 -21.5 -270.5t-73 -210.5t-143.5 -142t-225 -48q-256 2 -364.5 177t-108.5 494zM322 651q0 -272 66.5 -373.5t207.5 -101.5q139 0 201.5 99.5t62.5 375.5q0 162 -18.5 266.5t-56 155.5 t-82 68.5t-112 17.5t-112.5 -17.5t-83 -68.5t-56 -155.5t-18 -266.5z" />
<glyph unicode="1" horiz-adv-x="647" d="M10 1327q125 14 217 14q152 0 287 -26v-1315h-199v1145q-41 6 -104 6q-98 0 -174 -10z" />
<glyph unicode="2" horiz-adv-x="1030" d="M82 180q27 92 102.5 183.5t162.5 165t171 145t139.5 149.5t55.5 152q0 78 -57.5 130t-168.5 52q-174 0 -354 -119l-35 203q207 115 389 115q184 0 306 -105.5t122 -275.5q-2 -170 -141 -324q-61 -66 -191 -178.5t-175 -157.5q-53 -49 -86 -102l4 -14h622l-37 -199h-766z " />
<glyph unicode="3" horiz-adv-x="1085" d="M92 1341h821q49 0 50 -43q0 -12 -7 -30l-26 -76l-389 -350q203 -16 302 -130t103 -278v-4q0 -203 -137 -326.5t-342 -123.5q-164 0 -305 61l-35 227q51 -29 153.5 -59.5t165.5 -30.5q127 0 214.5 60.5t89.5 187.5q0 129 -85 180t-233 56h-2q-53 0 -135 -19l-33 199 l320 301h-451z" />
<glyph unicode="4" horiz-adv-x="1034" d="M41 356v101q0 98 53 178l459 706h233l-507 -786h303v233l198 103v-334h234l-94 -199h-138v-358h-198v356h-543z" />
<glyph unicode="5" horiz-adv-x="1075" d="M113 285q55 -43 157.5 -75t196.5 -34q123 0 204 64.5t81 199.5q0 92 -73 164t-202 74q-123 0 -317 -78l-35 195l151 546h687l-89 -198h-444l-80 -287q68 20 127 21q195 0 334 -123t139 -314q0 -229 -141 -344.5t-348 -115.5q-68 0 -168 21.5t-156 51.5z" />
<glyph unicode="6" horiz-adv-x="1155" d="M102 541q0 371 183.5 594t523.5 223q39 0 65 -4l29 -201q-27 8 -55 8q-201 0 -323 -81t-185 -244q104 92 262 92q193 0 322 -130t127 -323q0 -211 -127 -353t-332 -142q-236 0 -363 160.5t-127 400.5zM303 494v2q10 -139 81 -228.5t206 -89.5q123 0 193.5 84t70.5 207 q0 119 -68.5 189.5t-185.5 70.5q-113 0 -201 -65.5t-96 -169.5z" />
<glyph unicode="7" horiz-adv-x="841" d="M-10 1143v198h741q74 0 97.5 -23.5t23.5 -88.5v-90q-293 -455 -588 -1139h-219q309 711 565 1128v15h-620z" />
<glyph unicode="8" horiz-adv-x="1204" d="M123 403q0 225 178 340q-123 98 -123 246q0 172 119 269.5t305 97.5t305 -97.5t119 -269.5q0 -145 -123 -244q178 -117 178 -339q0 -199 -142 -312.5t-336.5 -113.5t-337 113t-142.5 310zM322 406q0 -100 76.5 -164t203.5 -64t204 63.5t77 161.5q0 106 -72 171t-209 65 t-208.5 -64.5t-71.5 -168.5zM377 989q0 -80 60.5 -123t160.5 -43q94 0 161.5 48.5t67.5 117.5q0 76 -56 123t-169 47q-111 0 -168 -48t-57 -122z" />
<glyph unicode="9" horiz-adv-x="1155" d="M102 862q0 211 127 353.5t332 142.5q236 0 364 -161t128 -400q0 -371 -183.5 -594t-523.5 -223q-39 0 -65 4l-29 200q27 -8 55 -8q385 0 506 326q-35 -33 -105.5 -62.5t-154.5 -29.5q-193 0 -322 129.5t-129 322.5zM299 868q0 -119 68.5 -189.5t187.5 -70.5 q111 0 200 65.5t97 170.5v-2q-12 141 -82 229t-205 88q-123 0 -194.5 -84t-71.5 -207z" />
<glyph unicode=":" horiz-adv-x="456" d="M113 94q0 47 34.5 82t81.5 35t81 -35t34 -82t-34 -80.5t-81 -33.5t-81.5 33.5t-34.5 80.5zM113 819q0 47 34.5 82t81.5 35t81 -35t34 -82t-34 -80.5t-81 -33.5t-81.5 33.5t-34.5 80.5z" />
<glyph unicode=";" horiz-adv-x="464" d="M-20 -401q78 102 128 248.5t50 254.5l166 9l2 2q0 -137 -55.5 -292t-118.5 -233zM121 819q0 47 34.5 82t82 35t81 -35t33.5 -82t-33.5 -80.5t-81 -33.5t-82 33.5t-34.5 80.5z" />
<glyph unicode="&#x3c;" horiz-adv-x="1079" d="M82 440v101l774 448l127 -123l-651 -374l665 -381l-139 -119z" />
<glyph unicode="=" horiz-adv-x="1165" d="M82 272l61 166h887l-63 -166h-885zM109 610l61 168h913l-61 -168h-913z" />
<glyph unicode="&#x3e;" horiz-adv-x="1079" d="M82 111l666 378l-654 377l127 123l776 -448v-101l-774 -448z" />
<glyph unicode="?" horiz-adv-x="841" d="M72 1286q154 70 297 70q190 0 306 -98.5t116 -284.5q0 -80 -28 -150.5t-72 -125t-90 -103.5t-91 -113.5t-68 -130.5h-211q20 98 66.5 175t94.5 125t95.5 93t77 102.5t29.5 129.5q0 78 -57.5 130t-165.5 52q-129 0 -273 -72zM223 94q0 47 34 82t81 35q49 0 83 -35t34 -82 t-34 -80.5t-81 -33.5q-49 0 -83 33.5t-34 80.5z" />
<glyph unicode="@" horiz-adv-x="2037" d="M113 526q0 377 265 642.5t640 265.5q377 0 642 -265.5t265 -640.5q0 -231 -118.5 -389.5t-340.5 -158.5q-111 0 -192.5 72.5t-97.5 166.5q-33 -51 -109 -86t-145 -35q-141 0 -220 80t-77 189q0 121 80.5 193.5t214.5 88.5l231 27q0 84 -24.5 116.5t-104.5 32.5 q-129 0 -305 -73l-33 151q63 33 166.5 62.5t171.5 29.5q166 0 233.5 -73.5t67.5 -229.5v-381q0 -178 174 -178q111 0 183.5 109.5t72.5 283.5q0 303 -215 519.5t-518 216.5t-519 -215.5t-216 -518.5t215 -519t518 -216q162 0 317 72v-187q-160 -57 -315 -57q-377 0 -642 265 t-265 640zM797 379q0 -119 125 -119q106 0 166.5 67.5t60.5 192.5l-195 -26q-157 -21 -157 -115z" />
<glyph unicode="A" horiz-adv-x="1179" d="M10 0l406 1174q31 90 94 136t143 46h72l444 -1356h-208l-140 426h-454l-148 -426h-209zM432 618h326l-158 484z" />
<glyph unicode="B" horiz-adv-x="1187" d="M164 0v1313q211 43 368 43q96 0 177.5 -16.5t153 -54.5t112.5 -110.5t41 -175.5q0 -182 -135 -251q94 -49 144 -139.5t50 -194.5q0 -184 -127 -299t-311 -115h-473zM362 199h273q98 0 171 59t73 154q0 113 -78 169t-211 56h-228v-438zM362 831h230q82 0 153.5 42 t71.5 120q0 170 -291 170q-57 0 -164 -12v-320z" />
<glyph unicode="C" horiz-adv-x="1241" d="M113 670q0 303 165.5 494.5t464.5 191.5q190 0 355 -92l-29 -187q-160 80 -324 80q-205 0 -313 -126t-108 -359q0 -215 110 -356q109 -138 312 -138h6q80 0 176 23.5t164 66.5l-37 -231q-135 -57 -305 -57q-266 0 -451.5 185.5t-185.5 504.5z" />
<glyph unicode="D" horiz-adv-x="1409" d="M164 6v1311q268 39 426 39q188 0 327.5 -54.5t220.5 -151.5t119.5 -217t38.5 -263q0 -188 -68.5 -327.5t-187 -215.5t-257 -111.5t-300.5 -35.5q-149 -1 -319 26zM362 186q90 -8 140 -8q94 0 176 14.5t159.5 49t132 89t87.5 141.5t33 198l2 -2q0 231 -115 359t-389 130 q-113 0 -226 -12v-959z" />
<glyph unicode="E" horiz-adv-x="1097" d="M164 0v1292q324 63 706 64q78 0 115 -2l-31 -199q-33 2 -104 2q-291 0 -488 -31v-313h543l-92 -195h-451v-419h603l-35 -199h-766z" />
<glyph unicode="F" horiz-adv-x="1017" d="M164 0l2 1292q324 63 678 64q76 0 112 -2l-30 -199q-33 2 -103 2q-262 0 -458 -31v-313h442l-92 -195h-350v-618h-201z" />
<glyph unicode="G" horiz-adv-x="1361" d="M113 666q0 305 166.5 498.5t463.5 193.5q94 0 204 -27.5t171 -68.5l-16 -191q-76 39 -180.5 62.5t-176.5 23.5q-205 0 -316.5 -128t-111.5 -361q0 -231 122 -360.5t306 -129.5q137 0 252 66v506l201 59v-709q-199 -121 -440 -120q-303 0 -474 189.5t-171 496.5z" />
<glyph unicode="H" horiz-adv-x="1406" d="M164 0v1305l198 51v-543h682v492l199 51v-1356h-199v618h-682v-618h-198z" />
<glyph unicode="I" horiz-adv-x="526" d="M164 0v1305l198 51v-1356h-198z" />
<glyph unicode="J" horiz-adv-x="526" d="M-129 -10l47 170h35q111 0 161 61.5t50 198.5v891l198 45v-903q0 -254 -109.5 -363.5t-285.5 -109.5q-41 0 -96 10z" />
<glyph unicode="K" horiz-adv-x="1189" d="M164 0v1305l198 51v-1356h-198zM240 692l788 664v-248l-512 -424l694 -684h-274z" />
<glyph unicode="L" horiz-adv-x="1015" d="M164 0v1305l198 51v-1157h633l-12 -199h-819z" />
<glyph unicode="M" horiz-adv-x="1665" d="M123 0l67 1303l261 53l380 -967l383 967l267 -51l61 -1305h-201l-45 1028h-10l-377 -936h-153l-377 936h-10l-45 -1028h-201z" />
<glyph unicode="N" horiz-adv-x="1378" d="M164 0v1300l246 56l604 -1104v1051l203 53v-1356h-123q-61 0 -123 41t-107 123l-487 866h-15v-1030h-198z" />
<glyph unicode="O" horiz-adv-x="1441" d="M113 651q0 305 153.5 505t452.5 200q301 0 455.5 -200t154.5 -505q0 -330 -173 -500.5t-435 -170.5q-264 0 -436 165.5t-172 505.5zM317 651q0 -473 402 -473q180 0 291.5 112.5t111.5 360.5h2q0 242 -103 374t-300 132q-199 0 -301.5 -131t-102.5 -375z" />
<glyph unicode="P" horiz-adv-x="1236" d="M164 0v1303q237 53 396 53h11q264 0 414 -124t150 -337q0 -92 -28 -167t-90.5 -139.5t-177 -100t-276.5 -35.5h-201v-453h-198zM362 637h199q373 0 373 256q0 260 -365 264q-82 0 -207 -18v-502z" />
<glyph unicode="Q" horiz-adv-x="1441" d="M113 651q0 305 153.5 505t452.5 200q203 0 344 -98.5t203.5 -253t62.5 -351.5q0 -305 -149.5 -475t-382.5 -194q307 -78 473 -217l-29 -207q-211 152 -526 235v185q-262 2 -432 167.5t-170 503.5zM317 653q0 -475 402 -475q180 0 291.5 114t111.5 361l2 -2 q0 242 -103 374t-300 132q-199 0 -301.5 -131t-102.5 -373z" />
<glyph unicode="R" horiz-adv-x="1267" d="M164 0v1303q184 54 394 53h30q223 0 357 -114t136 -294q0 -139 -70.5 -237.5t-193.5 -145.5l348 -565h-235l-322 524h-37h-209v-524h-198zM362 702h207q137 0 225.5 74t88.5 168q0 102 -79 160.5t-224 58.5q-133 -4 -218 -16v-445z" />
<glyph unicode="S" horiz-adv-x="1060" d="M102 997q-2 143 125 251t336 108q180 0 344 -82l-18 -203q-49 33 -150.5 59.5t-175.5 26.5q-88 0 -171 -37t-83 -114q0 -80 121 -158l279 -178q248 -158 249 -344q0 -145 -95 -245.5t-269 -100.5q-248 0 -418 71l-31 228q201 -100 394 -101q88 0 142 42t54 102 q0 96 -141 186l-299 190q-193 123 -193 299z" />
<glyph unicode="T" horiz-adv-x="1120" d="M31 1149l32 192h1047l-33 -192h-401v-1149h-201v1149h-444z" />
<glyph unicode="U" horiz-adv-x="1353" d="M164 414v889l198 53v-914q0 -145 89.5 -211.5t236.5 -66.5q184 0 301 67v1072l201 53v-1256q-264 -121 -506 -120q-231 0 -375.5 105.5t-144.5 328.5z" />
<glyph unicode="V" horiz-adv-x="1253" d="M41 1303l195 53l354 -1067q25 -70 35 -76q6 -2 16 -2l348 1092l223 53l-440 -1370h-86q-86 0 -153.5 47t-98.5 133z" />
<glyph unicode="W" horiz-adv-x="1878" d="M41 1303l205 53l397 -1067q18 -49 27.5 -63.5t27.5 -14.5l185 559l-185 533l195 53l354 -1067q27 -78 51 -78l316 1092l223 53l-407 -1370h-76q-201 0 -262 180l-107 311l-160 -491h-96q-174 0 -246 180z" />
<glyph unicode="X" horiz-adv-x="1345" d="M41 0l506 692l-449 606l201 58l371 -498l325 445l283 53l-485 -664l512 -692h-244l-391 526l-383 -526h-246z" />
<glyph unicode="Y" horiz-adv-x="1226" d="M164 778v527l198 51v-578q0 -113 74 -176t176 -63q129 0 250 69v701l201 47v-903q0 -252 -111.5 -362.5t-283.5 -110.5q-39 0 -95 10l48 172q25 -6 47 -6q102 0 147 62.5t47 187.5q-119 -61 -246 -62q-195 0 -323.5 119.5t-128.5 314.5z" />
<glyph unicode="Z" horiz-adv-x="1236" d="M102 1341h906q57 0 75.5 -12t18.5 -43q0 -2 -1 -10t-1 -12l-10 -97l-738 -968h783l-37 -199h-867q-53 0 -79.5 22.5t-30.5 75.5l-10 109l708 942h-684z" />
<glyph unicode="[" horiz-adv-x="688" d="M139 0v1356h498l-72 -185h-229v-989h303l-72 -182h-428z" />
<glyph unicode="\" horiz-adv-x="772" d="M82 1356l217 -51l391 -1325l-207 30z" />
<glyph unicode="]" horiz-adv-x="688" d="M49 1174l72 182h424v-1356h-494l72 182h229v992h-303z" />
<glyph unicode="^" horiz-adv-x="1120" d="M205 829l301 527h100l309 -525l-118 -141l-240 416l-229 -404z" />
<glyph unicode="_" horiz-adv-x="948" d="M82 0l43 170h741l-78 -170h-706z" />
<glyph unicode="`" horiz-adv-x="911" d="M205 1241l28 154q68 -55 230 -149.5t244 -123.5h-318q-73 37 -184 119z" />
<glyph unicode="a" horiz-adv-x="968" d="M78 264q0 131 88 208t231 93l250 31v49q0 68 -34.5 90.5t-106.5 22.5q-135 0 -328 -82l-35 162q68 35 178.5 66.5t184.5 31.5q178 0 250.5 -79t72.5 -245v-612h-182v90q-31 -55 -101.5 -82.5t-148.5 -27.5q-152 0 -235.5 83.5t-83.5 200.5zM260 276q0 -129 137 -129 q117 0 183.5 71t66.5 214l-215 -29q-172 -23 -172 -127z" />
<glyph unicode="b" horiz-adv-x="1001" d="M139 0v1305l187 51v-453q88 33 182 33q182 0 293.5 -128t111.5 -339q0 -229 -102 -359t-297 -130q-51 0 -107.5 24.5t-80.5 58.5v-63h-187zM326 297q0 -59 49 -98t139 -39q92 0 152.5 73.5t60.5 235.5v-2q0 141 -65.5 214t-153.5 73q-92 0 -182 -45v-412z" />
<glyph unicode="c" horiz-adv-x="966" d="M88 461q0 197 119 336t323 139q199 0 349 -131l-58 -166q-109 115 -289 115q-123 0 -183 -78t-60 -213q0 -147 76.5 -227t269.5 -80q119 0 170 6l-8 -176q-55 -6 -160 -6q-268 0 -408.5 129t-140.5 352z" />
<glyph unicode="d" horiz-adv-x="1005" d="M88 432q0 223 115.5 363.5t320.5 140.5q72 0 156 -33v402l186 53v-1358h-186v61q-45 -82 -168 -81q-199 0 -311.5 133t-112.5 319zM279 449q0 -287 233 -287q70 0 119 44t49 107v389q-51 51 -154 52q-247 0 -247 -305z" />
<glyph unicode="e" horiz-adv-x="960" d="M88 461q0 211 126 343t282 132q182 0 274 -105.5t92 -261.5q0 -76 -46 -122t-111 -50l-418 -22q2 -61 29.5 -104.5t62.5 -65t93 -33.5t100 -14t106 -2q33 0 115 8l-17 -174q-133 -10 -153 -10q-283 0 -408 118q-127 119 -127 363zM289 539l317 14q72 2 72 78q0 47 -48 87 t-122 40q-96 0 -153.5 -63.5t-65.5 -155.5z" />
<glyph unicode="f" horiz-adv-x="628" d="M139 0v1118q184 217 484 238l-45 -185q-137 -12 -252 -122v-148h284l-84 -180h-200v-721h-187z" />
<glyph unicode="g" horiz-adv-x="1003" d="M88 455q0 229 130 355t314 126q193 0 332 -129v-719q0 -252 -107.5 -364.5t-275.5 -112.5q-66 0 -162 26.5t-167 63.5l65 168q147 -78 258 -78q94 0 148.5 65.5t54.5 161.5q-63 -39 -162 -38q-205 0 -316.5 141t-111.5 334zM274 451q0 -129 71 -210t175 -81q92 0 156 53 l2 516q-49 25 -131 25q-139 0 -206 -81t-67 -222z" />
<glyph unicode="h" horiz-adv-x="1032" d="M139 0v1305l187 51v-502q102 82 252 82q315 0 315 -303v-633h-186v621q0 72 -30 102.5t-99 30.5q-150 0 -252 -107v-647h-187z" />
<glyph unicode="i" horiz-adv-x="464" d="M123 1245q0 45 32.5 78t78 33t78 -32t32.5 -77q0 -47 -32.5 -78.5t-78 -31.5t-78 31.5t-32.5 76.5zM139 0v889l187 47v-936h-187z" />
<glyph unicode="j" horiz-adv-x="464" d="M-154 -379l48 174q29 -6 47 -6q109 0 153.5 63.5t44.5 192.5v846l187 45v-860v2q0 -252 -106.5 -359.5t-276.5 -107.5q-42 0 -97 10zM121 1245q0 45 31.5 78t76.5 33t78 -32t33 -77t-32 -77.5t-77 -32.5t-77.5 31.5t-32.5 76.5z" />
<glyph unicode="k" horiz-adv-x="923" d="M139 0v1305l185 51v-721l473 301v-203l-361 -225l502 -508h-252l-360 362v-362h-187z" />
<glyph unicode="l" horiz-adv-x="464" d="M139 0v1305l187 51v-1356h-187z" />
<glyph unicode="m" horiz-adv-x="1570" d="M139 0v723q238 213 447 213q164 0 239 -115q51 47 139.5 81t172.5 34q166 0 230.5 -84t64.5 -240v-612h-187v614q0 82 -25.5 111t-82.5 29q-137 0 -256 -109v-29v-616h-187v614q0 82 -25.5 111t-82.5 29q-143 0 -260 -111v-643h-187z" />
<glyph unicode="n" horiz-adv-x="1050" d="M139 0v723q102 92 228.5 152.5t248.5 60.5q295 0 295 -311v-625h-186v618q0 68 -33 102t-86 34q-61 0 -143 -33t-137 -78v-643h-187z" />
<glyph unicode="o" d="M92 455q0 481 426 481q219 0 317.5 -131t100.5 -354q0 -223 -111.5 -347t-304.5 -124q-215 0 -321.5 127t-106.5 348zM279 457q0 -145 52 -217t187 -74h7q126 0 174 79q50 81 51 220v-2q0 152 -54.5 219.5t-175.5 67.5q-131 0 -186 -64.5t-55 -228.5z" />
<glyph unicode="p" horiz-adv-x="1009" d="M139 -379v1194q102 66 184.5 93.5t190.5 27.5q199 0 303.5 -134t104.5 -339q0 -219 -132.5 -351t-310.5 -132q-76 0 -153 38v-397h-187zM326 213q74 -53 153 -53q102 0 178 82t76 221l2 -2q0 141 -61.5 217t-159.5 76q-109 0 -188 -39v-502z" />
<glyph unicode="q" horiz-adv-x="995" d="M88 461q0 242 125 358.5t311 116.5q190 0 332 -82v-1233h-186v391q-74 -33 -133 -32q-178 0 -313.5 133t-135.5 348zM274 463q0 -119 72 -210t186 -91q90 0 138 41v528q-78 23 -150 23q-113 0 -179.5 -70.5t-66.5 -220.5z" />
<glyph unicode="r" horiz-adv-x="616" d="M139 0v713q188 209 477 223l-14 -186q-166 -10 -276 -109v-641h-187z" />
<glyph unicode="s" horiz-adv-x="806" d="M88 711q0 94 76 159.5t221 65.5q74 0 160 -17.5t133 -52.5l-25 -168q-98 63 -225 64q-145 0 -145 -68q0 -54 102 -106l199 -101q135 -70 135 -237q-2 -129 -89 -199.5t-220 -70.5q-152 0 -279 57l-22 209q131 -86 305 -86q117 0 116 94q0 53 -67 88l-211 111 q-164 84 -164 258z" />
<glyph unicode="t" horiz-adv-x="618" d="M139 223v889l187 51v-262h235l-84 -180h-151v-498q0 -61 71 -61q33 0 64 10l39 -182q-55 -10 -101 -10q-113 0 -186.5 60t-73.5 183z" />
<glyph unicode="u" horiz-adv-x="1019" d="M139 299v592l187 45v-637q0 -70 38.5 -105.5t108.5 -35.5q68 0 134.5 32.5t84.5 73.5v625l189 47v-936h-187v63q-94 -84 -251.5 -83.5t-230.5 87.5t-73 232z" />
<glyph unicode="v" horiz-adv-x="907" d="M27 889l178 47l219 -713q10 -37 16 -47t17 -10l213 723l211 45l-289 -954h-152q-63 0 -107 30.5t-57 75.5z" />
<glyph unicode="w" horiz-adv-x="1406" d="M27 889l188 47l231 -711q14 -43 20.5 -54t16.5 -11l146 475l-74 254l182 47l211 -711q12 -45 17.5 -55t17.5 -10l193 729l204 47l-266 -956h-174q-43 0 -80 26.5t-47 63.5l-92 295l-115 -385h-182q-92 0 -121 90z" />
<glyph unicode="x" horiz-adv-x="1034" d="M27 0l372 479l-317 410l201 47l233 -303l201 256l270 47l-354 -455l375 -481h-236l-256 328l-254 -328h-235z" />
<glyph unicode="y" d="M139 352v539l187 45v-584q0 -188 151 -188q59 0 128 32.5t97 82.5v612l187 45v-850q0 -252 -106.5 -363.5t-276.5 -111.5q-66 0 -161 26.5t-167 63.5l64 168q170 -78 274 -78q90 0 138 59.5t48 161.5v51q-43 -39 -111.5 -61t-127.5 -22q-137 0 -230.5 86.5t-93.5 285.5z " />
<glyph unicode="z" horiz-adv-x="909" d="M78 721l26 180h658q43 0 43 -37v-108l-490 -576h516l-36 -180h-613q-84 0 -86 55l-8 117l453 549h-463z" />
<glyph unicode="{" horiz-adv-x="595" d="M61 455l27 106q45 0 77 33t32 70v389q0 303 338 303l-31 -152q-74 0 -98.5 -38t-24.5 -152v-334q0 -74 -37 -118t-76 -52q39 -8 75 -56t36 -135v-342q0 -109 28.5 -153.5t114.5 -46.5l-28 -152q-135 10 -215 73.5t-80 227.5v406q0 43 -36 83t-102 40z" />
<glyph unicode="|" horiz-adv-x="1024" />
<glyph unicode="}" horiz-adv-x="591" d="M61 -375l31 152q47 0 85 52t38 146v344q0 86 36 134.5t75 56.5q-37 8 -74 51t-37 119v334q0 111 -29.5 150.5t-111.5 39.5h-13l29 152q53 0 102.5 -13.5t97.5 -45t76.5 -94t28.5 -150.5v-406q0 -47 34 -82t101 -35l-22 -106q-53 0 -82 -36t-29 -89v-342q0 -174 -83 -251 t-253 -81z" />
<glyph unicode="~" horiz-adv-x="1044" d="M154 1122l49 197q61 18 125 18q141 0 241 -61q6 -4 22.5 -14.5t24 -14.5l22.5 -12t25.5 -11t24.5 -6.5t29 -3.5q47 0 131 29l43 -180q-113 -31 -178 -31v-2q-98 0 -217 68q-111 68 -177 67q-56 0 -165 -43z" />
<glyph unicode="&#xa1;" horiz-adv-x="526" d="M147 1241q0 47 34 81t81 34t82 -34t35 -81t-35 -82t-82 -35t-81 35t-34 82zM170 -20v1005h186v-954z" />
<glyph unicode="&#xa2;" horiz-adv-x="976" d="M88 460.5q0 188.5 107.5 325t296.5 148.5v113l86 43v-156q170 -14 301 -129l-58 -166q-94 100 -243 113v-594q18 -2 57 -2q119 0 170 6l-8 -176q-55 -6 -160 -6q-39 0 -57 2v-164h-88v174q-199 33 -301.5 156.5t-102.5 312zM289 463q0 -240 203 -293v582 q-203 -27 -203 -289z" />
<glyph unicode="&#xa3;" horiz-adv-x="1083" d="M113 0v199h163v524h-163v201h161v206q164 225 484 226q74 0 180 -13l-47 -202q-109 14 -131 14q-193 0 -285 -98v-133h328l-84 -199h-244v-526h516l-43 -199h-835z" />
<glyph unicode="&#xa5;" horiz-adv-x="1404" d="M154 770v533l198 53v-584q0 -113 74 -177.5t176 -64.5q123 0 252 70v711l199 45v-776h331l-45 -174h-288q0 -35 -7 -66h256l-45 -176h-262q-100 -184 -336 -184q-39 0 -94 10l47 172q2 0 20.5 -3t26.5 -3q199 0 199 243q-150 -61 -258 -61q-178 0 -311 113.5t-133 318.5z " />
<glyph unicode="&#xa6;" horiz-adv-x="1024" />
<glyph unicode="&#xa7;" horiz-adv-x="1161" d="M113 508q0 94 49 179t135 136q-90 145 -74 273q115 133 260.5 188t378.5 72l-45 -199q-150 -14 -236.5 -43t-146.5 -88q12 -82 62.5 -132t146.5 -93q33 -14 96.5 -40t98 -40t81 -44t71 -60.5t42 -82t17.5 -116.5q0 -90 -46.5 -171t-123.5 -134q66 -84 65 -191 q0 -94 -42 -163.5t-114.5 -106.5t-149.5 -54.5t-165 -21.5l31 195q244 16 246 149q0 45 -39 84t-68 53.5t-88 40.5q-16 8 -70.5 30t-78 33t-71.5 35.5t-71.5 43t-57.5 49t-51.5 60.5t-29.5 72t-12 87zM307 510q-2 -78 123 -145q43 -23 137.5 -63t137.5 -60q66 16 106.5 62 t40.5 102q0 98 -111 145l-151 65q-96 45 -133 68q-70 -18 -110 -68.5t-40 -105.5z" />
<glyph unicode="&#xa8;" horiz-adv-x="1001" d="M205 1231q0 45 31.5 77.5t76.5 32.5t78 -31.5t33 -76.5q0 -47 -32 -80t-77 -33t-77.5 33t-32.5 78zM575 1231q0 45 32 77.5t77 32.5q47 0 80 -31.5t33 -76.5t-33 -79t-78 -34t-78 33t-33 78z" />
<glyph unicode="&#xa9;" horiz-adv-x="770" d="M92 1042q0 131 92 222.5t221.5 91.5t221.5 -91t92 -223q0 -129 -92 -220t-221 -91v-2q-129 0 -221.5 92t-92.5 221zM160 1042q0 -100 71.5 -172.5t174 -72.5t174 72.5t71.5 172.5q0 102 -71.5 174t-174 72t-174 -72t-71.5 -174zM240 1044q0 82 45 135.5t127 53.5 q51 0 96 -21l-12 -71q-47 27 -84 26q-49 0 -77 -32.5t-28 -90t30 -88t75 -30.5q39 0 90 32l-10 -86q-53 -16 -80 -16q-72 2 -122 52t-50 136z" />
<glyph unicode="&#xaa;" horiz-adv-x="622" d="M51 903q0 92 62.5 144.5t156.5 62.5l154 18v27q0 35 -15.5 46t-58.5 11q-94 0 -229 -57l-29 129q51 29 127 50.5t125 21.5q125 0 176 -56.5t51 -169.5v-413h-147v49q-72 -63 -156 -64q-100 0 -158.5 59.5t-58.5 141.5zM199 911q0 -70 77.5 -69.5t111.5 38.5t38 117 l-125 -12h2q-104 -15 -104 -74z" />
<glyph unicode="&#xab;" horiz-adv-x="794" d="M51 453l144 348l219 53l-164 -401l166 -392h-199zM348 453l144 348l219 53l-162 -401l164 -390l-199 -2z" />
<glyph unicode="&#xac;" horiz-adv-x="1112" d="M82 504v158h948v-662h-176v504h-772z" />
<glyph unicode="&#xad;" horiz-adv-x="751" d="M72 449l32 192h576l-33 -192h-575z" />
<glyph unicode="&#xae;" horiz-adv-x="770" d="M92 1042q0 131 92 222.5t221.5 91.5t221.5 -91t92 -223q0 -129 -92 -220t-221 -91v-2q-129 0 -221.5 92t-92.5 221zM160 1042q0 -100 71.5 -172.5t174 -72.5t174 72.5t71.5 172.5q0 102 -71.5 174t-174 72t-174 -72t-71.5 -174zM293 870v344q86 14 110 15 q53 0 94.5 -27.5t41.5 -81.5q0 -68 -62 -100l88 -150h-78l-79 131h-9h-39v-131h-67zM360 1069h39q31 0 51.5 17.5t20.5 33.5q0 41 -63 41q-14 0 -48 -4v-88z" />
<glyph unicode="&#xaf;" horiz-adv-x="1114" d="M82 950l440 461h68l442 -461l-76 -168l-399 416l-397 -416zM457 0v889l186 47v-936h-186z" />
<glyph unicode="&#xb0;" horiz-adv-x="780" d="M72 1036q0 131 93 225.5t224 94.5t225.5 -94.5t94.5 -225.5t-94.5 -224t-225.5 -93t-224 93t-93 224zM215 1036.5q0 -71.5 51 -123t123 -51.5t124 51.5t52 123t-52 123.5t-124 52t-123 -52t-51 -123.5z" />
<glyph unicode="&#xb1;" horiz-adv-x="1081" d="M82 104l43 172h874l-79 -172h-838zM82 670l43 172h328v293l170 75v-368h376l-79 -170h-295v-324h-170v322h-373z" />
<glyph unicode="&#xb2;" horiz-adv-x="651" d="M915 664q16 70 77 140t122.5 117.5t110.5 98.5t51 90q0 72 -98 72q-43 0 -108.5 -28t-117.5 -67l-30 181q129 88 272 88q123 0 194.5 -67.5t71.5 -164.5q0 -80 -51 -144.5t-138 -133t-118 -103.5l2 -18h328l-60 -184h-483z" />
<glyph unicode="&#xb3;" horiz-adv-x="677" d="M0 1356h496q88 0 88 -53q0 -55 -25 -80l-160 -154q178 -63 179 -248q0 -113 -85 -197.5t-223 -84.5q-111 0 -196 45l-33 188q33 -20 101.5 -40.5t113.5 -20.5q59 0 97 29.5t38 76.5q0 51 -41 77t-100 26q-41 0 -88 -21l-64 117l207 172h-250z" />
<glyph unicode="&#xb4;" horiz-adv-x="909" d="M205 1122q80 29 241.5 123t229.5 150l29 -154q-111 -82 -185 -119h-315z" />
<glyph unicode="&#xb5;" d="M143 -389v1278l187 47l2 -627q0 -143 143 -143q68 0 135.5 33.5t85.5 74.5v615l189 45v-934h-187v61q-88 -82 -241 -81q-68 0 -127 34v-403h-187z" />
<glyph unicode="&#x3bc;" d="M143 -389v1278l187 47l2 -627q0 -143 143 -143q68 0 135.5 33.5t85.5 74.5v615l189 45v-934h-187v61q-88 -82 -241 -81q-68 0 -127 34v-403h-187z" />
<glyph unicode="&#xb6;" horiz-adv-x="1095" d="M102 862q0 201 93.5 336t267.5 160h149v-1358h-206l2 406q-135 45 -220.5 169.5t-85.5 286.5zM725 0v1268l207 96v-1364h-207z" />
<glyph unicode="&#xb7;" horiz-adv-x="354" d="M61 506q0 47 35 82t82 35t81 -35t34 -82t-34 -81t-81 -34t-82 34t-35 81z" />
<glyph unicode="&#xb8;" horiz-adv-x="1114" d="M82 950l440 461h68l442 -461l-76 -168l-313 326v-1108h-186v1094l-297 -312z" />
<glyph unicode="&#xb9;" horiz-adv-x="395" d="M0 1343q55 8 133 9h17q111 0 208 -17v-778l-186 -2v616q-4 0 -17.5 1.5t-21.5 1.5q-2 0 -2 -3q-63 0 -106 -12z" />
<glyph unicode="&#xba;" horiz-adv-x="679" d="M51 1028q0 328 293 328q283 0 287 -330q0 -152 -77 -236.5t-210 -84.5v-3q-147 0 -220 88t-73 238zM203 1028q0 -90 30.5 -131t110.5 -43q135 0 135 178q0 94 -31.5 133t-103.5 39q-78 0 -109.5 -37t-31.5 -139z" />
<glyph unicode="&#xbb;" horiz-adv-x="794" d="M82 61l164 392l-162 401l217 -51l145 -350l-163 -392h-201zM379 61l166 392l-164 401l219 -51l143 -350l-163 -392h-201z" />
<glyph unicode="&#xbc;" horiz-adv-x="1380" d="M0 1343q55 8 133 9h17q111 0 208 -17v-778l-186 -2v616q-4 0 -17.5 1.5t-21.5 1.5q-2 0 -2 -3q-63 0 -106 -12zM80 0l919 1331l232 25l-940 -1356h-211zM776 180v72q0 94 45 160l244 374h211l-283 -438h133v86l174 68v-154h144l-64 -166h-80v-182h-174v180h-350z" />
<glyph unicode="&#xbd;" horiz-adv-x="1480" d="M0 1343q55 8 133 9h17q111 0 208 -17v-778l-186 -2v616q-4 0 -17.5 1.5t-21.5 1.5q-2 0 -2 -3q-63 0 -106 -12zM80 0l919 1331l232 25l-940 -1356h-211zM915 123q16 70 77 140.5t122.5 116.5t111.5 98t50 91q0 72 -98 72q-43 0 -108.5 -28.5t-117.5 -67.5l-30 182 q131 88 272 88q123 0 194.5 -67.5t71.5 -165.5q0 -80 -51 -144.5t-138 -132t-118 -102.5l2 -21h328l-60 -182h-483z" />
<glyph unicode="&#xbe;" horiz-adv-x="1560" d="M0 1356h496q86 0 86 -53h2q0 -55 -25 -80l-160 -154q178 -63 179 -248q0 -113 -85 -197.5t-223 -84.5q-111 0 -196 45l-33 188q33 -20 101.5 -40.5t113.5 -20.5q59 0 97 29.5t38 76.5q0 51 -41 77t-100 26q-41 0 -88 -21l-64 117l207 172h-250zM209 0l919 1331l232 25 l-940 -1356h-211zM905 180v72q0 94 45 160l244 374h211l-283 -438h133v86l175 68v-154h143l-64 -166h-79v-182h-175v180h-350z" />
<glyph unicode="&#xbf;" horiz-adv-x="841" d="M51 362q0 80 27.5 151t72 125t90.5 103.5t91 114t67 129.5h211q-20 -98 -66 -175t-94.5 -125t-95.5 -93t-76.5 -102.5t-29.5 -129.5q0 -78 57 -130t166 -52q129 0 272 72l27 -201q-154 -70 -297 -69q-190 0 -306 98t-116 284zM387 1241q0 47 34 81t81 34q49 0 82.5 -34 t33.5 -81t-33.5 -82t-80.5 -35q-49 0 -83 35t-34 82z" />
<glyph unicode="&#xc0;" horiz-adv-x="1179" d="M10 0l406 1174q31 90 94 136t143 46h72l444 -1356h-208l-140 426h-454l-148 -426h-209zM283 1554l28 154q70 -55 232 -149.5t241 -122.5h-315q-80 40 -186 118zM432 618h326l-158 484z" />
<glyph unicode="&#xc1;" horiz-adv-x="1179" d="M10 0l406 1174q31 90 94 136t143 46h72l444 -1356h-208l-140 426h-454l-148 -426h-209zM432 618h326l-158 484zM463 1434q80 29 241.5 123t229.5 151l31 -154q-102 -80 -185 -120h-317z" />
<glyph unicode="&#xc2;" horiz-adv-x="1179" d="M10 0l406 1174q31 90 94 136t143 46h72l444 -1356h-208l-140 426h-454l-148 -426h-209zM346 1554q90 68 193 119h161q80 -41 187 -119l-29 -153q-115 92 -242 151q-129 -59 -239 -151zM432 618h326l-158 484z" />
<glyph unicode="&#xc3;" horiz-adv-x="1179" d="M10 0l406 1174q31 90 94 136t143 46h72l444 -1356h-208l-140 426h-454l-148 -426h-209zM346 1540l37 170q25 6 61 6q74 0 133.5 -33.5t108.5 -67.5t98 -34q43 0 80 12l29 -147q-53 -20 -111 -21q-86 0 -181 68t-165 68q-43 -1 -90 -21zM432 618h326l-158 484z" />
<glyph unicode="&#xc4;" horiz-adv-x="1179" d="M10 0l406 1174q31 90 94 136t143 46h72l444 -1356h-208l-140 426h-454l-148 -426h-209zM313 1522q0 47 32 78.5t79 31.5q45 0 76.5 -31.5t31.5 -78.5h3q0 -47 -32 -79t-79 -32t-79 32t-32 79zM432 618h326l-158 484zM688 1522q0 47 33 78.5t78 31.5t77.5 -31.5 t32.5 -78.5t-32.5 -79t-77.5 -32t-78 32t-33 79z" />
<glyph unicode="&#xc5;" horiz-adv-x="1179" d="M10 0l406 1174q25 70 67 112q-70 59 -69 150q0 84 58 142t140 58t140.5 -58t58.5 -140q0 -88 -63 -148l421 -1290h-208l-140 426h-454l-148 -426h-209zM432 618h326l-158 484zM530 1437.5q0 -32.5 24 -57t56.5 -24.5t57 24.5t24.5 57t-23.5 56.5t-56.5 24 q-35 0 -58.5 -24t-23.5 -56.5z" />
<glyph unicode="&#xc6;" horiz-adv-x="1742" d="M10 0l625 1174q98 182 205 182h32l134 -33q266 33 510 33q78 0 114 -2l-31 -199q-33 2 -104 2q-291 0 -487 -31v-313h542l-92 -195h-450v-419h602l-35 -199h-766v424h-363l-227 -424h-209zM551 618h258v484z" />
<glyph unicode="&#xc7;" horiz-adv-x="1241" d="M113 670q0 303 165.5 494.5t464.5 191.5q190 0 355 -92l-29 -187q-160 80 -324 80q-205 0 -313 -126t-108 -359q0 -215 110.5 -355.5t317.5 -138.5q80 0 176 23.5t164 66.5l-37 -231q-117 -49 -262 -55l-7 -39q106 -41 111 -152q0 -76 -53 -137.5t-137 -63.5l-72 119 q39 2 63.5 24.5t24.5 59.5q0 92 -133 92l22 109q-217 45 -358 223.5t-141 452.5z" />
<glyph unicode="&#xc8;" horiz-adv-x="1097" d="M164 0v1292q324 63 706 64q78 0 115 -2l-31 -199q-33 2 -104 2q-291 0 -488 -31v-313h543l-92 -195h-451v-419h603l-35 -199h-766zM272 1554l29 154q70 -55 231.5 -149.5t241.5 -122.5h-315q-81 40 -187 118z" />
<glyph unicode="&#xc9;" horiz-adv-x="1097" d="M164 0v1292q324 63 706 64q78 0 115 -2l-31 -199q-33 2 -104 2q-291 0 -488 -31v-313h543l-92 -195h-451v-419h603l-35 -199h-766zM434 1425q80 29 242 123t229 150l31 -152q-98 -76 -184 -121h-318z" />
<glyph unicode="&#xca;" horiz-adv-x="1097" d="M164 0v1292q324 63 706 64q78 0 115 -2l-31 -199q-33 2 -104 2q-291 0 -488 -31v-313h543l-92 -195h-451v-419h603l-35 -199h-766zM299 1554q90 68 193 119h161q86 -43 185 -119l-27 -153q-115 92 -242 151q-129 -59 -239 -151z" />
<glyph unicode="&#xcb;" horiz-adv-x="1097" d="M164 0v1292q324 63 706 64q78 0 115 -2l-31 -199q-33 2 -104 2q-291 0 -488 -31v-313h543l-92 -195h-451v-419h603l-35 -199h-766zM276 1522q0 45 32 77.5t77 32.5t78 -31.5t33 -78.5q0 -45 -32 -78t-77 -33q-47 0 -79 32t-32 79zM651 1522q0 45 32 77.5t77 32.5 q47 0 78.5 -31.5t31.5 -78.5h2q0 -45 -32.5 -78t-77.5 -33t-78 32t-33 79z" />
<glyph unicode="&#xcc;" horiz-adv-x="526" d="M-61 1554l28 154q68 -55 229.5 -149.5t243.5 -122.5h-317q-73 36 -184 118zM164 0v1305l198 51v-1356h-198z" />
<glyph unicode="&#xcd;" horiz-adv-x="526" d="M88 1434q80 29 242 124t229 150l29 -154q-102 -80 -182 -120h-318zM164 0v1305l198 51v-1356h-198z" />
<glyph unicode="&#xce;" horiz-adv-x="526" d="M-6 1554q86 68 192 119h162q74 -37 184 -119l-28 -153q-106 88 -240 151q-133 -61 -241 -151zM164 0v1305l198 51v-1356h-198z" />
<glyph unicode="&#xcf;" horiz-adv-x="526" d="M-35 1522q0 47 32 78.5t79 31.5q45 0 76.5 -31.5t31.5 -78.5h2q0 -47 -31.5 -79t-78.5 -32t-79 32t-32 79zM164 0v1305l198 51v-1356h-198zM340 1522q0 45 31.5 77.5t77.5 32.5q47 0 79.5 -32.5t32.5 -77.5t-32.5 -78t-77.5 -33t-78 32t-33 79z" />
<glyph unicode="&#xd0;" horiz-adv-x="1409" d="M0 707v192h164v418q268 39 426 39q188 0 327.5 -54.5t220.5 -151.5t119.5 -217t38.5 -263q0 -188 -68.5 -327.5t-187 -215.5t-257 -111.5t-300.5 -35.5q-150 0 -319 26v701h-164zM362 186q90 -8 140 -8q94 0 176 14.5t159.5 49t132 89t87.5 141.5t33 198l2 -2 q0 231 -115 359t-389 130q-113 0 -226 -12v-246h300l-93 -190h-207v-523z" />
<glyph unicode="&#xd1;" horiz-adv-x="1376" d="M164 0v1300l246 58l604 -1106v1053l200 53v-1358h-120q-61 0 -123 41t-107 123l-487 866h-15v-1030h-198zM446 1540l37 170q25 6 62 6q74 0 133 -33.5t108.5 -67.5t98.5 -34q43 0 80 12l28 -147q-53 -20 -110 -21q-86 0 -181.5 68t-164.5 68q-44 -1 -91 -21z" />
<glyph unicode="&#xd2;" horiz-adv-x="1441" d="M113 651q0 305 153.5 505t452.5 200q301 0 455.5 -200t154.5 -505q0 -330 -173 -500.5t-435 -170.5q-264 0 -436 165.5t-172 505.5zM317 651q0 -473 402 -473q180 0 291.5 112.5t111.5 360.5h2q0 242 -103 374t-300 132q-199 0 -301.5 -131t-102.5 -375zM389 1552l29 156 q68 -57 230.5 -151.5t242.5 -120.5l-318 -2q-73 36 -184 118z" />
<glyph unicode="&#xd3;" horiz-adv-x="1441" d="M113 651q0 305 153.5 505t452.5 200q301 0 455.5 -200t154.5 -505q0 -330 -173 -500.5t-435 -170.5q-264 0 -436 165.5t-172 505.5zM317 651q0 -473 402 -473q180 0 291.5 112.5t111.5 360.5h2q0 242 -103 374t-300 132q-199 0 -301.5 -131t-102.5 -375zM516 1425 q80 29 242 123t229 150l29 -152h2q-98 -76 -184 -121h-318z" />
<glyph unicode="&#xd4;" horiz-adv-x="1441" d="M113 651q0 305 153.5 505t452.5 200q301 0 455.5 -200t154.5 -505q0 -330 -173 -500.5t-435 -170.5q-264 0 -436 165.5t-172 505.5zM317 651q0 -473 402 -473q180 0 291.5 112.5t111.5 360.5h2q0 242 -103 374t-300 132q-199 0 -301.5 -131t-102.5 -375zM455 1554 q90 68 192 119h162q80 -41 186 -119l-28 -153q-115 92 -242 151q-129 -59 -240 -151z" />
<glyph unicode="&#xd5;" horiz-adv-x="1441" d="M113 651q0 305 153.5 505t452.5 200q301 0 455.5 -200t154.5 -505q0 -330 -173 -500.5t-435 -170.5q-264 0 -436 165.5t-172 505.5zM317 651q0 -473 402 -473q180 0 291.5 112.5t111.5 360.5h2q0 242 -103 374t-300 132q-199 0 -301.5 -131t-102.5 -375zM453 1540l34 170 q29 6 62 6q76 0 135 -33.5t108.5 -67.5t98.5 -34q43 0 80 12l26 -147h2q-55 -20 -110 -21q-86 0 -182.5 68t-165.5 68q-43 -1 -88 -21z" />
<glyph unicode="&#xd6;" horiz-adv-x="1441" d="M113 651q0 305 153.5 505t452.5 200q301 0 455.5 -200t154.5 -505q0 -330 -173 -500.5t-435 -170.5q-264 0 -436 165.5t-172 505.5zM317 651q0 -473 402 -473q180 0 291.5 112.5t111.5 360.5h2q0 242 -103 374t-300 132q-199 0 -301.5 -131t-102.5 -375zM367 1522 q0 45 32.5 77.5t77.5 32.5q47 0 79 -31.5t32 -78.5q0 -45 -32 -78t-77 -33q-47 0 -79.5 33t-32.5 78zM829 1522q0 47 32 78.5t79 31.5t79 -31.5t32 -78.5t-32 -79t-79 -32t-79 32t-32 79z" />
<glyph unicode="&#xd7;" horiz-adv-x="1040" d="M82 160l291 289l-291 290l113 160l313 -313l313 313l113 -160l-291 -288l315 -314l-137 -137l-313 313l-313 -313z" />
<glyph unicode="&#xd8;" horiz-adv-x="1441" d="M113 649q0 145 36.5 271.5t108.5 224.5t189.5 154.5t271.5 56.5q158 0 285 -62l45 72l225 -10l-119 -178q174 -193 174 -527q0 -330 -173 -502t-435 -172q-170 0 -303 70l-43 -67l-207 26l100 156q-155 176 -155 487zM311 651q0 -197 72 -311l510 784q-72 33 -172 33 q-199 0 -304.5 -132t-105.5 -374zM526 213q88 -37 193 -37q182 0 296.5 113.5t114.5 359.5q0 221 -90 352z" />
<glyph unicode="&#xd9;" horiz-adv-x="1353" d="M164 414v889l198 53v-914q0 -145 89.5 -211.5t236.5 -66.5q184 0 301 67v1072l201 53v-1258v2q-264 -121 -506 -120q-231 0 -375.5 105.5t-144.5 328.5zM422 1554l29 154q70 -57 230.5 -150.5t242.5 -121.5h-318q-73 36 -184 118z" />
<glyph unicode="&#xda;" horiz-adv-x="1353" d="M164 414v889l198 53v-914q0 -145 89.5 -211.5t236.5 -66.5q184 0 301 67v1072l201 53v-1258v2q-264 -121 -506 -120q-231 0 -375.5 105.5t-144.5 328.5zM467 1434q80 29 241.5 124t229.5 150l29 -154q-102 -80 -183 -120h-317z" />
<glyph unicode="&#xdb;" horiz-adv-x="1353" d="M164 414v889l198 53v-914q0 -145 89.5 -211.5t236.5 -66.5q184 0 301 67v1072l201 53v-1256q-264 -121 -506 -120q-231 0 -375.5 105.5t-144.5 328.5zM408 1554q86 68 192 119h162q74 -37 184 -119l-28 -153q-106 88 -240 151q-133 -61 -242 -151z" />
<glyph unicode="&#xdc;" horiz-adv-x="1353" d="M164 414v889l198 53v-914q0 -145 89.5 -211.5t236.5 -66.5q184 0 301 67v1072l201 53v-1258v2q-264 -121 -506 -120q-231 0 -375.5 105.5t-144.5 328.5zM381 1522q0 45 32.5 77.5t78 32.5t78 -31.5t32.5 -78.5q0 -45 -31.5 -78t-76.5 -33q-47 0 -80 33t-33 78zM801 1522 q0 47 31.5 78.5t78.5 31.5t79 -31.5t32 -78.5t-32 -79t-79 -32t-78.5 32t-31.5 79z" />
<glyph unicode="&#xdd;" horiz-adv-x="1226" d="M164 778v527l198 51v-578q0 -113 74 -176t176 -63q129 0 250 69v701l201 47v-903q0 -252 -111.5 -362.5t-283.5 -110.5q-39 0 -95 10l48 172q25 -6 47 -6q102 0 147 62.5t47 187.5q-119 -61 -246 -62q-195 0 -323.5 119.5t-128.5 314.5zM399 1434q80 29 242 123t229 151 l29 -154h2q-102 -80 -184 -120h-318z" />
<glyph unicode="&#xde;" horiz-adv-x="1167" d="M0 0v1303l199 53v-209h252q227 0 341.5 -137.5t114.5 -364.5q0 -197 -114.5 -331t-317.5 -134h-276v-180h-199zM199 379h215q135 0 211.5 68.5t76.5 191.5q0 162 -65.5 235.5t-222.5 73.5h-215v-569z" />
<glyph unicode="&#xdf;" horiz-adv-x="1024" d="M139 -2v1130q104 117 221 166t283 62q92 -33 164 -131.5t72 -204.5q0 -182 -168 -307q-51 -35 -52 -54q0 -20 46 -59l141 -135q117 -111 117 -242q0 -238 -439 -237l39 186h28h31q9 0 29.5 1t31.5 3l27.5 5t25.5 9.5t18.5 14.5t13.5 19.5t4 25.5q0 33 -51 84l-180 172 q-2 2 -22.5 20.5t-25 25.5t-16.5 25.5t-16 38t-4 43.5q0 59 63 119q10 8 54 46t61.5 57.5t38 59.5t20.5 81q0 70 -106 156q-164 -18 -260 -109v-1071h-189z" />
<glyph unicode="&#xe0;" horiz-adv-x="968" d="M78 264q0 131 88 208t231 93l250 31v49q0 68 -34.5 90.5t-106.5 22.5q-135 0 -328 -82l-35 162q68 35 178.5 66.5t184.5 31.5q178 0 250.5 -79t72.5 -245v-612h-182v90q-31 -55 -101.5 -82.5t-148.5 -27.5q-152 0 -235.5 83.5t-83.5 200.5zM141 1241l29 154 q68 -55 229.5 -149.5t243.5 -123.5h-317q-74 37 -185 119zM260 276q0 -129 137 -129q117 0 183.5 71t66.5 214l-215 -29q-172 -23 -172 -127z" />
<glyph unicode="&#xe1;" horiz-adv-x="968" d="M78 264q0 131 88 208t231 93l250 31v49q0 68 -34.5 90.5t-106.5 22.5q-135 0 -328 -82l-35 162q68 35 178.5 66.5t184.5 31.5q178 0 250.5 -79t72.5 -245v-612h-182v90q-31 -55 -101.5 -82.5t-148.5 -27.5q-152 0 -235.5 83.5t-83.5 200.5zM260 276q0 -129 137 -129 q117 0 183.5 71t66.5 214l-215 -29q-172 -23 -172 -127zM293 1122q80 29 240.5 122t230.5 151l29 -154q-104 -78 -185 -119h-315z" />
<glyph unicode="&#xe2;" horiz-adv-x="968" d="M78 264q0 131 88 208t231 93l250 31v49q0 68 -34.5 90.5t-106.5 22.5q-135 0 -328 -82l-35 162q68 35 178.5 66.5t184.5 31.5q178 0 250.5 -79t72.5 -245v-612h-182v90q-31 -55 -101.5 -82.5t-148.5 -27.5q-152 0 -235.5 83.5t-83.5 200.5zM211 1180q86 68 192 118h160 q74 -37 185 -118l-29 -154q-106 88 -240 152q-133 -61 -241 -152zM260 276q0 -129 137 -129q117 0 183.5 71t66.5 214l-215 -29q-172 -23 -172 -127z" />
<glyph unicode="&#xe3;" horiz-adv-x="968" d="M78 264q0 131 88 208t231 93l250 31v49q0 68 -34.5 90.5t-106.5 22.5q-135 0 -328 -82l-35 162q68 35 178.5 66.5t184.5 31.5q178 0 250.5 -79t72.5 -245v-612h-182v90q-31 -55 -101.5 -82.5t-148.5 -27.5q-152 0 -235.5 83.5t-83.5 200.5zM197 1157l36 168q33 8 62 8 q74 0 133 -33.5t108.5 -67.5t98.5 -34q43 0 80 12l26 -147q-53 -20 -110 -21q-86 0 -181.5 68t-164.5 68q-43 -1 -88 -21zM260 276q0 -129 137 -129q117 0 183.5 71t66.5 214l-215 -29q-172 -23 -172 -127z" />
<glyph unicode="&#xe4;" horiz-adv-x="968" d="M78 264q0 131 88 208t231 93l250 31v49q0 68 -34.5 90.5t-106.5 22.5q-135 0 -328 -82l-35 162q68 35 178.5 66.5t184.5 31.5q178 0 250.5 -79t72.5 -245v-612h-182v90q-31 -55 -101.5 -82.5t-148.5 -27.5q-152 0 -235.5 83.5t-83.5 200.5zM190 1231q0 47 32 78.5 t77 31.5t78 -31.5t33 -76.5q0 -47 -33 -80t-78 -33t-77 33t-32 78zM260 276q0 -129 137 -129q117 0 183.5 71t66.5 214l-215 -29q-172 -23 -172 -127zM561 1231q0 47 32 78.5t77 31.5t77.5 -31.5t32.5 -76.5q0 -47 -32.5 -80t-77.5 -33t-77 33t-32 78z" />
<glyph unicode="&#xe5;" horiz-adv-x="968" d="M78 264q0 131 88 208t231 93l250 31v49q0 68 -34.5 90.5t-106.5 22.5q-135 0 -328 -82l-35 162q68 35 178.5 66.5t184.5 31.5q178 0 250.5 -79t72.5 -245v-612h-182v90q-31 -55 -101.5 -82.5t-148.5 -27.5q-152 0 -235.5 83.5t-83.5 200.5zM260 276q0 -129 137 -129 q117 0 183.5 71t66.5 214l-215 -29q-172 -23 -172 -127zM285 1272q0 84 58 141t140 57t140.5 -57t58.5 -141t-58.5 -141.5t-140.5 -57.5t-140 57.5t-58 141.5zM401 1272q0 -33 24 -56.5t58 -23.5q33 0 56.5 23.5t23.5 56.5t-23.5 56.5t-56.5 23.5q-35 0 -58.5 -23.5 t-23.5 -56.5z" />
<glyph unicode="&#xe6;" horiz-adv-x="1468" d="M78 264q0 129 88 206t231 95l246 31v49q0 68 -32.5 88.5t-104.5 20.5q-145 0 -328 -78l-35 162q68 35 178.5 66.5t184.5 31.5q188 0 264 -94q111 94 244 94q180 0 268 -105.5t88 -261.5q0 -76 -46 -122t-112 -50l-401 -22q2 -61 28.5 -105.5t59.5 -66t91.5 -32.5t97 -13 t104.5 -2q47 0 108 6l-16 -174q-106 -8 -143 -8q-293 -2 -428 151q-98 -152 -316 -151q-152 0 -235.5 83.5t-83.5 200.5zM264 276q0 -125 133 -124q115 0 180.5 71.5t65.5 204.5l-211 -29q-168 -23 -168 -123zM819 539l293 14q33 2 51.5 23.5t18.5 54.5q0 47 -41 86t-115 39 q-90 -2 -142.5 -62.5t-64.5 -154.5z" />
<glyph unicode="&#xe7;" horiz-adv-x="966" d="M88 461q0 197 119 336t323 139q199 0 349 -131l-58 -166q-109 115 -289 115q-123 0 -183 -78t-60 -213q0 -147 76.5 -227t269.5 -80q119 0 170 6l-8 -176q-55 -6 -160 -6h-43l-6 -37q106 -41 110 -152q0 -76 -53 -137.5t-137 -63.5l-70 119q37 2 61.5 24.5t24.5 59.5 q0 92 -133 92l25 123q-162 47 -245 165t-83 288z" />
<glyph unicode="&#xe8;" horiz-adv-x="960" d="M88 461q0 211 126 343t282 132q182 0 274 -105.5t92 -261.5q0 -76 -46 -122t-111 -50l-418 -22q2 -61 29.5 -104.5t62.5 -65t93 -33.5t100 -14t106 -2q33 0 115 8l-17 -174q-133 -10 -153 -10q-283 0 -408 118q-127 119 -127 363zM162 1241l28 154q70 -57 231 -150.5 t243 -122.5h-316q-80 41 -186 119zM289 539l317 14q72 2 72 78q0 47 -48 87t-122 40q-96 0 -153.5 -63.5t-65.5 -155.5z" />
<glyph unicode="&#xe9;" horiz-adv-x="960" d="M88 461q0 211 126 343t282 132q182 0 273 -105.5t91 -261.5h2q0 -76 -46 -122t-111 -50l-418 -22q2 -61 29.5 -104.5t62.5 -65t93 -33.5t100 -14t106 -2q33 0 115 8l-17 -174q-133 -10 -153 -10q-283 0 -408 118q-127 119 -127 363zM289 539l317 14q72 2 72 78 q0 47 -48 87t-122 40q-96 0 -153.5 -63.5t-65.5 -155.5zM375 1122q80 29 241.5 123t229.5 150l31 -154q-104 -78 -185 -119h-317z" />
<glyph unicode="&#xea;" horiz-adv-x="960" d="M88 461q0 211 126 343t282 132q182 0 274 -105.5t92 -261.5q0 -76 -46 -122t-111 -50l-418 -22q2 -61 29.5 -104.5t62.5 -65t93 -33.5t100 -14t106 -2q33 0 115 8l-17 -174q-133 -10 -153 -10q-283 0 -408 118q-127 119 -127 363zM233 1198q86 63 193 121h162 q74 -37 184 -119l-29 -156q-111 96 -239 152q-129 -55 -240 -152zM289 539l317 14q72 2 72 78q0 47 -48 87t-122 40q-96 0 -153.5 -63.5t-65.5 -155.5z" />
<glyph unicode="&#xeb;" horiz-adv-x="960" d="M88 461q0 211 126 343t282 132q182 0 274 -105.5t92 -261.5q0 -76 -46 -122t-111 -50l-418 -22q2 -61 29.5 -104.5t62.5 -65t93 -33.5t100 -14t106 -2q33 0 115 8l-17 -174q-133 -10 -153 -10q-283 0 -408 118q-127 119 -127 363zM199 1231q0 47 31.5 78.5t78.5 31.5 q45 0 77 -31.5t32 -76.5h2q0 -47 -33 -80t-78 -33t-77.5 33t-32.5 78zM289 539l317 14q72 2 72 78q0 47 -48 87t-122 40q-96 0 -153.5 -63.5t-65.5 -155.5zM569 1231q0 47 33 78.5t78 31.5t78 -31.5t33 -76.5q0 -47 -33 -80t-78 -33t-78 33t-33 78z" />
<glyph unicode="&#xec;" horiz-adv-x="464" d="M-133 1241l29 154q68 -55 229.5 -149.5t241.5 -123.5h-316q-73 37 -184 119zM139 0v889l187 47v-936h-187z" />
<glyph unicode="&#xed;" horiz-adv-x="464" d="M82 1133q80 29 241.5 123t229.5 149l29 -154q-111 -82 -183 -118h-317zM139 0v889l187 47v-936h-187z" />
<glyph unicode="&#xee;" horiz-adv-x="464" d="M-37 1198q90 68 193 119h161q74 -37 185 -119l-29 -154q-102 88 -240 152q-137 -63 -239 -152zM139 0v889l187 47v-936h-187z" />
<glyph unicode="&#xef;" horiz-adv-x="464" d="M-55 1231q0 45 31.5 77.5t76.5 32.5t78 -31.5t33 -76.5h2q0 -45 -33 -79t-78 -34t-77.5 33t-32.5 78zM139 0v889l187 47v-936h-187zM299 1231q0 45 33 77.5t78 32.5t77.5 -31.5t32.5 -76.5q0 -47 -31.5 -80t-76.5 -33t-79 33t-34 78z" />
<glyph unicode="&#xf0;" horiz-adv-x="1138" d="M88 461q2 178 121 299t348 121q63 0 138 -23.5t122 -62.5q-41 147 -205 247l-80 -106l-151 108l57 74q-92 29 -180 41l-39 197q203 -31 336 -80l102 135l99 -180l-29 -35q324 -195 324 -618q0 -248 -129 -423t-371 -175q-209 0 -337 145.5t-126 335.5zM285 455 q0 -113 76.5 -196t189.5 -81q147 0 224 118t77 273v-2q-127 115 -295 115q-119 0 -196.5 -57t-75.5 -170z" />
<glyph unicode="&#xf1;" horiz-adv-x="1050" d="M139 0v723q102 92 228.5 152.5t248.5 60.5q295 0 295 -311v-625h-186v618q0 68 -33 102t-86 34q-61 0 -143 -33t-137 -78v-643h-187zM256 1143l37 168q33 8 61 8q74 0 133.5 -34t108.5 -67.5t98 -33.5q45 0 82 12l27 -147q-53 -20 -111 -21q-86 0 -181 67.5t-165 67.5 q-43 0 -90 -20z" />
<glyph unicode="&#xf2;" d="M92 455q0 481 426 481q219 0 317.5 -131t100.5 -354q0 -223 -111.5 -347t-304.5 -124q-215 0 -321.5 127t-106.5 348zM197 1241l28 154q70 -55 231.5 -149.5t241.5 -123.5h-315q-80 41 -186 119zM279 457q0 -145 52 -217t187 -74q131 -2 181.5 79t50.5 220v-2 q0 152 -54.5 219.5t-175.5 67.5q-131 0 -186 -64.5t-55 -228.5z" />
<glyph unicode="&#xf3;" d="M92 455q0 481 426 481q219 0 317.5 -131t100.5 -354q0 -223 -111.5 -347t-304.5 -124q-215 0 -321.5 127t-106.5 348zM279 457q0 -145 52 -217t187 -74q131 -2 181.5 79t50.5 220v-2q0 152 -54.5 219.5t-175.5 67.5q-131 0 -186 -64.5t-55 -228.5zM383 1122 q82 29 243.5 123t229.5 150l29 -154q-111 -82 -185 -119h-317z" />
<glyph unicode="&#xf4;" d="M92 455q0 481 426 481q219 0 317.5 -131t100.5 -354q0 -223 -111.5 -347t-304.5 -124q-215 0 -321.5 127t-106.5 348zM250 1196q82 63 192 121h162q74 -37 184 -119l-28 -156q-106 92 -240 152q-133 -57 -241 -152zM279 457q0 -145 52 -217t187 -74q131 -2 181.5 79 t50.5 220v-2q0 152 -54.5 219.5t-175.5 67.5q-131 0 -186 -64.5t-55 -228.5z" />
<glyph unicode="&#xf5;" d="M92 455q0 481 426 481q219 0 317.5 -131t100.5 -354q0 -223 -111.5 -347t-304.5 -124q-215 0 -321.5 127t-106.5 348zM238 1126l34 168q37 8 62 9q76 0 135 -34t108.5 -68t98.5 -34q43 0 80 13l28 -148q-55 -20 -110 -20q-86 0 -181.5 67.5t-164.5 67.5q-45 -1 -90 -21z M279 457q0 -145 52 -217t187 -74q131 -2 181.5 79t50.5 220v-2q0 152 -54.5 219.5t-175.5 67.5q-131 0 -186 -64.5t-55 -228.5z" />
<glyph unicode="&#xf6;" d="M92 455q0 481 426 481q219 0 317.5 -131t100.5 -354q0 -223 -111.5 -347t-304.5 -124q-215 0 -321.5 127t-106.5 348zM211 1231q0 47 31.5 78.5t79.5 31.5q45 0 76.5 -31.5t31.5 -76.5h2q0 -47 -32.5 -80t-78 -33t-78 33t-32.5 78zM279 457q0 -145 52 -217t187 -74 q131 -2 181.5 79t50.5 220v-2q0 152 -54.5 219.5t-175.5 67.5q-131 0 -186 -64.5t-55 -228.5zM582 1231q0 47 32.5 78.5t77.5 31.5t78 -31.5t33 -76.5q0 -47 -33 -80t-78 -33t-77.5 33t-32.5 78z" />
<glyph unicode="&#xf7;" horiz-adv-x="1314" d="M82 430l43 176h1108l-78 -176h-1073zM535 252q0 47 33.5 81t80.5 34q49 0 83 -34t34 -81t-34 -82t-83 -35q-47 0 -80.5 35t-33.5 82zM535 784q0 47 33.5 82t80.5 35q49 0 83 -35t34 -82t-34 -80.5t-83 -33.5q-47 0 -80.5 33.5t-33.5 80.5z" />
<glyph unicode="&#xf8;" d="M92 455q0 481 426 481q125 0 211 -45l23 33l174 12l-90 -133q96 -123 100 -352q0 -223 -111.5 -347t-304.5 -124q-123 0 -217 45l-27 -39l-180 -19l99 144q-103 123 -103 344zM279 457q0 -115 28 -181l316 459q-43 14 -103 15q-131 0 -186 -64.5t-55 -228.5zM412 182 q45 -16 106 -16q131 -2 181.5 79t50.5 218q0 113 -27 174z" />
<glyph unicode="&#xf9;" horiz-adv-x="1019" d="M139 299v592l187 45v-637q0 -70 38.5 -105.5t108.5 -35.5q68 0 134.5 32.5t84.5 73.5v625l189 47v-936h-187v63q-94 -84 -251.5 -83.5t-230.5 87.5t-73 232zM215 1241l29 154q68 -55 229.5 -149.5t243.5 -123.5h-318q-73 37 -184 119z" />
<glyph unicode="&#xfa;" horiz-adv-x="1019" d="M139 299v592l187 45v-637q0 -70 38.5 -105.5t108.5 -35.5q68 0 134.5 32.5t84.5 73.5v625l189 47v-936h-187v63q-94 -84 -251.5 -83.5t-230.5 87.5t-73 232zM324 1122q82 29 243.5 123t229.5 150l28 -154q-111 -82 -184 -119h-317z" />
<glyph unicode="&#xfb;" horiz-adv-x="1019" d="M139 299v592l187 45v-637q0 -70 38.5 -105.5t108.5 -35.5q68 0 134.5 32.5t84.5 73.5v625l189 47v-936h-187v63q-94 -84 -251.5 -83.5t-230.5 87.5t-73 232zM240 1180q90 68 192 118h162q74 -37 184 -118l-28 -154q-111 92 -240 152q-129 -59 -240 -152z" />
<glyph unicode="&#xfc;" horiz-adv-x="1019" d="M139 299v592l187 45v-637q0 -70 38.5 -105.5t108.5 -35.5q68 0 134.5 32.5t84.5 73.5v625l189 47v-936h-187v63q-94 -84 -251.5 -83.5t-230.5 87.5t-73 232zM213 1231q0 47 33 78.5t78 31.5t77.5 -31.5t32.5 -76.5t-32.5 -78t-77.5 -33t-78 32t-33 77zM584 1231 q0 45 32.5 77.5t77.5 32.5t78 -31.5t33 -76.5t-32 -78t-77 -33q-47 0 -79.5 32t-32.5 77z" />
<glyph unicode="&#xfd;" d="M139 352v539l187 45v-584q0 -188 151 -188q59 0 128 32.5t97 82.5v612l187 45v-850q0 -252 -106.5 -363.5t-276.5 -111.5q-66 0 -161 26.5t-167 63.5l64 168q170 -78 274 -78q90 0 138 59.5t48 161.5v51q-43 -39 -111.5 -61t-127.5 -22q-137 0 -230.5 86.5t-93.5 285.5z M293 1122q80 29 240.5 122t230.5 151l29 -154q-104 -78 -185 -119h-315z" />
<glyph unicode="&#xfe;" horiz-adv-x="991" d="M-4 -2v1305l186 53v-447q82 27 189 27q199 0 303 -134t104 -341v2q0 -221 -132 -353.5t-310 -129.5q-76 0 -152 28v-397h-188v387zM182 213q72 -51 156 -53q102 0 178 82t76 221v-2q0 141 -61.5 218t-157.5 77q-104 0 -191 -41v-502z" />
<glyph unicode="&#xff;" d="M139 352v539l187 45v-584q0 -188 151 -188q59 0 128 32.5t97 82.5v612l187 45v-850q0 -252 -106.5 -363.5t-276.5 -111.5q-66 0 -161 26.5t-167 63.5l64 168q170 -78 274 -78q90 0 138 59.5t48 161.5v51q-43 -39 -111.5 -61t-127.5 -22q-137 0 -230.5 86.5t-93.5 285.5z M238 1231q0 45 31.5 77.5t76.5 32.5t78 -31.5t33 -76.5h2q0 -45 -33 -78t-78 -33t-77.5 32t-32.5 77zM608 1231q0 47 32 78.5t79 31.5q45 0 76.5 -31.5t31.5 -76.5h2q0 -45 -31.5 -78t-78.5 -33q-45 0 -78 32t-33 77z" />
<glyph unicode="&#x152;" horiz-adv-x="2050" d="M113 651q0 305 153.5 505t452.5 200q242 0 395 -137v73q328 63 709 64q78 0 114 -2l-30 -199q-33 2 -107 2q-291 0 -487 -31v-313h545l-93 -195h-452v-419h604l-37 -199h-764v113q-160 -133 -395 -133q-264 0 -436 165.5t-172 505.5zM311 651q0 -473 408 -473 q182 0 296.5 112.5t114.5 360.5q0 242 -105 374t-304 132t-304.5 -132t-105.5 -374z" />
<glyph unicode="&#x153;" horiz-adv-x="1579" d="M92 455q0 481 426 481q217 0 322 -137q121 137 284 137q180 0 268.5 -105.5t88.5 -261.5q0 -76 -46 -122t-110 -50l-403 -22q2 -61 29.5 -105.5t60 -66t91 -32.5t97.5 -13t105 -2q47 0 106 6l-14 -174q-106 -8 -146 -8q-279 -2 -415 137q-113 -137 -316 -137 q-215 0 -321.5 127t-106.5 348zM279 457q0 -145 52 -217t187 -74q131 -2 181.5 79t50.5 220v-2q0 152 -54.5 219.5t-175.5 67.5q-131 0 -186 -64.5t-55 -228.5zM930 539l293 14q72 4 71 78h-2q0 49 -41 87t-114 38q-90 -2 -142.5 -62.5t-64.5 -154.5z" />
<glyph unicode="&#x178;" horiz-adv-x="1226" d="M164 778v527l198 51v-578q0 -113 74 -176t176 -63q129 0 250 69v701l201 47v-903q0 -252 -111.5 -362.5t-283.5 -110.5q-39 0 -95 10l48 172q25 -6 47 -6q102 0 147 62.5t47 187.5q-119 -61 -246 -62q-195 0 -323.5 119.5t-128.5 314.5zM315 1522q0 47 33 78.5t78 31.5 t77 -31.5t32 -78.5h2q0 -47 -33 -79t-78 -32t-78 32t-33 79zM690 1522q0 47 32 78.5t79 31.5t78.5 -31.5t31.5 -78.5t-31.5 -79t-78.5 -32t-79 32t-32 79z" />
<glyph unicode="&#x2c6;" horiz-adv-x="948" d="M205 1180q86 68 192 118h160q80 -41 186 -118l-28 -154q-115 92 -242 152q-129 -59 -240 -152z" />
<glyph unicode="&#x2dc;" horiz-adv-x="956" d="M205 1143l35 168q37 8 61 8q76 0 135.5 -34t108.5 -67.5t98 -33.5q43 0 80 12l29 -147q-55 -20 -111 -21q-86 0 -181 67.5t-165 67.5q-45 0 -90 -20z" />
<glyph unicode="&#x2013;" horiz-adv-x="874" d="M61 449l33 188h719l-53 -188h-699z" />
<glyph unicode="&#x2014;" horiz-adv-x="1071" d="M61 449l33 188h916l-54 -188h-895z" />
<glyph unicode="&#x2018;" horiz-adv-x="380" d="M72 1032q0 145 73 346l164 -22q-68 -195 -71 -316z" />
<glyph unicode="&#x2019;" horiz-adv-x="380" d="M72 1038q66 188 69 318l168 8h-2q0 -147 -74 -348z" />
<glyph unicode="&#x201a;" horiz-adv-x="380" d="M72 -205q66 188 69 318l168 8h-2q0 -147 -74 -348z" />
<glyph unicode="&#x201c;" horiz-adv-x="612" d="M72 1032q0 145 73 346l162 -22h2q-68 -195 -71 -316zM313 1032q0 143 66 322l162 -23q-57 -166 -62 -291z" />
<glyph unicode="&#x201d;" horiz-adv-x="606" d="M72 1063q57 164 61 293l166 8q0 -145 -66 -324zM297 1038q68 195 72 318l166 8q0 -141 -76 -348z" />
<glyph unicode="&#x201e;" horiz-adv-x="606" d="M72 -180q57 164 61 293l166 8q0 -145 -66 -324zM297 -205q68 195 72 318l166 8q0 -141 -76 -348z" />
<glyph unicode="&#x2022;" horiz-adv-x="634" d="M51 505.5q0 108.5 79 187.5t187.5 79t187.5 -79t79 -187.5t-79 -187t-187.5 -78.5t-187.5 78.5t-79 187z" />
<glyph unicode="&#x2026;" horiz-adv-x="1089" d="M61 94q0 47 34 82t81 35q49 0 83 -35t34 -82t-34 -80.5t-81 -33.5q-49 0 -83 33.5t-34 80.5zM430 94q0 47 34 82t81 35q49 0 83 -35t34 -82t-34 -80.5t-81 -33.5q-49 0 -83 33.5t-34 80.5zM797 94q0 47 33.5 82t80.5 35q49 0 83 -35t34 -82t-33.5 -80.5t-81.5 -33.5 q-49 0 -82.5 33.5t-33.5 80.5z" />
<glyph unicode="&#x2039;" horiz-adv-x="497" d="M51 453l144 348l219 53l-164 -401l166 -390l-199 -2z" />
<glyph unicode="&#x203a;" horiz-adv-x="497" d="M82 61l164 392l-162 401l217 -51l145 -350l-163 -392h-201z" />
<glyph unicode="&#x20ac;" horiz-adv-x="1419" d="M41 414l47 174h203q0 10 -1 32.5t-1 32.5v25h-195l49 174h166q47 227 206 365.5t407 138.5q170 0 354 -92l-31 -187q-160 80 -323 80q-158 0 -263.5 -79t-146.5 -226h449l-46 -174h-428v-25q0 -20 5 -65h370l-45 -174h-280q53 -117 156.5 -177.5t230.5 -60.5 q207 4 344 92l-37 -231q-135 -57 -303 -57q-209 0 -374 113.5t-230 320.5h-283z" />
<glyph unicode="&#x2122;" horiz-adv-x="1269" d="M72 1260l12 92h471l-14 -92h-181v-531h-94v531h-194zM578 727l55 598l86 35l176 -440l172 440l86 -33l66 -600h-95l-43 412l-135 -348h-108l-129 344l-37 -408h-94z" />
<glyph unicode="&#xe000;" horiz-adv-x="935" d="M0 935h935v-935h-935v935z" />
<glyph unicode="&#xfb01;" horiz-adv-x="1093" d="M139 0v1118q184 217 484 238l-45 -185q-137 -12 -252 -122v-148h284l-84 -180h-200v-721h-187zM750 1245q0 45 32.5 78t77.5 33t78 -32t33 -77t-32 -77.5t-77 -32.5q-47 0 -79.5 31.5t-32.5 76.5zM766 0v889l186 47v-936h-186z" />
<glyph unicode="&#xfb02;" horiz-adv-x="1093" d="M139 0v1118q184 217 484 238l-45 -185q-137 -12 -252 -122v-148h284l-84 -180h-200v-721h-187zM766 0v1305l188 51v-1356h-188z" />
<glyph unicode="&#xfb03;" horiz-adv-x="1722" d="M1380 1245q0 45 32.5 78t78 33t78 -32t32.5 -77q0 -47 -32.5 -78.5t-78 -31.5t-78 31.5t-32.5 76.5zM1396 0v889l187 47v-936h-187zM768 0v1118q184 217 484 238l-45 -185q-137 -12 -252 -122v-148h284l-84 -180h-200v-721h-187zM139 0v1118q184 217 484 238l-45 -185 q-137 -12 -252 -122v-148h284l-84 -180h-200v-721h-187z" />
<glyph unicode="&#xfb04;" horiz-adv-x="1722" d="M1396 0v1305l187 51v-1356h-187zM768 0v1118q184 217 484 238l-45 -185q-137 -12 -252 -122v-148h284l-84 -180h-200v-721h-187zM139 0v1118q184 217 484 238l-45 -185q-137 -12 -252 -122v-148h284l-84 -180h-200v-721h-187z" />
<glyph horiz-adv-x="1024" />
</font>
</defs>
</svg>
